<svg id="Layer_1" enable-background="new 0 0 512 512" height="512" viewBox="0 0 512 512" width="512" xmlns="http://www.w3.org/2000/svg" xmlns:xlink="http://www.w3.org/1999/xlink">
  <defs>
    <linearGradient id="lg1"><stop offset="0" stop-color="#fef0ae"/><stop offset="1" stop-color="#fac600"/></linearGradient>
    <linearGradient id="lg2"><stop offset="0" stop-color="#fe9738" stop-opacity="0"/><stop offset="1" stop-color="#fe9738"/></linearGradient>
    <linearGradient id="lg3"><stop offset="0" stop-color="#dbd5ef" stop-opacity="0"/><stop offset=".2853" stop-color="#d9d2ee" stop-opacity=".285"/><stop offset=".4739" stop-color="#d4c9e9" stop-opacity=".474"/><stop offset=".6346" stop-color="#cbbae2" stop-opacity=".635"/><stop offset=".7795" stop-color="#bfa5d7" stop-opacity=".78"/><stop offset=".9126" stop-color="#af8aca" stop-opacity=".913"/><stop offset="1" stop-color="#a274bf"/></linearGradient>
    <linearGradient id="lg4"><stop offset="0" stop-color="#433f43" stop-opacity="0"/><stop offset="1" stop-color="#1a1a1a"/></linearGradient>
  </defs>
  
  <g>
    <!-- PDF Background -->
    <g clip-rule="evenodd" fill-rule="evenodd">
      <path d="m168.584 0h173.398l153.062 153.091v293.98c0 35.698-29.202 64.929-64.929 64.929h-261.53c-35.698 0-64.9-29.231-64.9-64.929v-382.142c0-35.698 29.202-64.929 64.899-64.929z" fill="#e5252a"/>
      <path d="m341.982 0 153.062 153.091h-136.559c-9.1 0-16.503-7.432-16.503-16.532z" fill="#b71d21"/>
      <path d="m31.206 218.02h352.618c7.842 0 14.25 6.408 14.25 14.25v129.36c0 7.842-6.408 14.25-14.25 14.25h-352.618c-7.842 0-14.25-6.408-14.25-14.25v-129.36c0-7.842 6.409-14.25 14.25-14.25z" fill="#b71d21"/>
    </g>
    
    <!-- PDF Text -->
    <path d="m117.759 244.399h-26.598c-4.565 0-8.266 3.701-8.266 8.266v43.598 10.738 34.206c0 4.565 3.701 8.266 8.266 8.266s8.266-3.701 8.266-8.266v-25.94h18.331c19.224 0 34.864-15.64 34.864-34.863v-1.141c.001-19.224-15.639-34.864-34.863-34.864zm18.332 36.004c0 10.108-8.224 18.331-18.332 18.331h-18.332v-2.472-35.332h18.331c10.108 0 18.332 8.224 18.332 18.331v1.142zm70.62-36.004h-26.597c-4.565 0-8.266 3.701-8.266 8.266v88.542c0 4.565 3.701 8.266 8.266 8.266h26.597c19.224 0 34.864-15.64 34.864-34.863v-35.347c0-19.224-15.64-34.864-34.864-34.864zm18.332 70.21c0 10.108-8.224 18.331-18.332 18.331h-18.331v-72.01h18.331c10.108 0 18.332 8.224 18.332 18.331zm53.897-53.678v22.882h38.317c4.565 0 8.266 3.701 8.266 8.266s-3.701 8.266-8.266 8.266h-38.317v40.862c0 4.565-3.701 8.266-8.266 8.266s-8.266-3.701-8.266-8.266v-88.542c0-4.565 3.701-8.266 8.266-8.266h53.195c4.565 0 8.266 3.701 8.266 8.266s-3.701 8.266-8.266 8.266z" fill="#fff"/>
  </g>
  
  <!-- Lock Icon (scaled and centered) -->
  <g transform="translate(256, 110) scale(0.30) translate(-256, -256)" opacity="0.95">
    <!-- Lock body -->
    <path d="m392.828 177.157h-273.656c-4.841 0-9.535 1.659-13.301 4.7l-9.99 8.068c-18.139 14.649-28.681 36.714-28.681 60.029v240.875c0 11.692 9.478 21.17 21.17 21.17h335.26c11.692 0 21.17-9.478 21.17-21.17v-240.875c0-23.315-10.542-45.38-28.681-60.028l-9.99-8.068c-3.766-3.042-8.46-4.701-13.301-4.701z" fill="url(#lg1)"/>
    
    <!-- Lock shackle -->
    <path d="m378.633 122.633v79.778c0 4.719-9.698 8.542-21.668 8.542-11.961 0-21.668-3.823-21.668-8.542v-79.778c0-43.732-35.575-79.297-79.297-79.297s-79.297 35.565-79.297 79.297v79.778c0 4.719-9.707 8.542-21.668 8.542-11.971 0-21.668-3.823-21.668-8.542v-79.778c0-67.624 55.008-122.633 122.633-122.633s122.633 55.009 122.633 122.633z" fill="#f5fbff"/>
    
    <!-- Keyhole -->
    <path d="m308.558 331.283c0-29.094-23.64-52.667-52.759-52.558-28.036.105-51.348 22.662-52.324 50.681-.596 17.115 6.998 32.474 19.166 42.477 8.768 7.208 13.793 18.003 13.793 29.353v32.804c0 10.806 8.76 19.566 19.566 19.566s19.566-8.76 19.566-19.566v-32.804c0-11.352 5.028-22.147 13.797-29.356 11.719-9.635 19.195-24.24 19.195-40.597z" fill="#5a5a5a"/>
  </g>
</svg>